<svg xmlns="http://www.w3.org/2000/svg" viewBox="0 0 36.552 31.027">
  <defs>
    <style>
      .cls-1 {
        fill: #a1d637;
      }

      .cls-2 {
        fill: #3b95fe;
        opacity: 0.71;
      }

      .cls-3 {
        fill: none;
      }

      .cls-4, .cls-6 {
        fill: #fff;
      }

      .cls-4 {
        stroke: #fff;
        stroke-width: 0.5px;
      }

      .cls-5, .cls-6 {
        stroke: none;
      }
    </style>
  </defs>
  <g id="组_4160" data-name="组 4160" transform="translate(-50.744 -1826.455)">
    <g id="组_4158" data-name="组 4158" transform="translate(-229.93 -147.545)">
      <ellipse id="椭圆_13" data-name="椭圆 13" class="cls-1" cx="7.55" cy="7.55" rx="7.55" ry="7.55" transform="translate(302.239 1975.294) rotate(7)"/>
      <ellipse id="椭圆_14" data-name="椭圆 14" class="cls-2" cx="4.688" cy="4.688" rx="4.688" ry="4.688" transform="translate(297.173 1984.051)"/>
      <g id="组_4157" data-name="组 4157" transform="translate(280.674 1974)">
        <g id="减去_19" data-name="减去 19" class="cls-3" transform="translate(0)">
          <path class="cls-5" d="M31.027,31.027H0V0H22.878l8.149,8.149V31.026Z"/>
          <path class="cls-6" d="M 29.52675628662109 29.52690315246582 L 29.52675628662109 8.77053165435791 L 22.25625419616699 1.500003457069397 L 1.499996185302734 1.500003457069397 L 1.499996185302734 29.52690315246582 L 29.52675628662109 29.52690315246582 M 31.02675628662109 31.02690315246582 L -3.764038183362572e-06 31.02690315246582 L -3.764038183362572e-06 3.483581622276688e-06 L 22.87757682800293 3.483581622276688e-06 L 31.02675628662109 8.149213790893555 L 31.02675628662109 31.02605438232422 L 31.02675628662109 31.02690315246582 Z"/>
        </g>
        <g id="组_4156" data-name="组 4156" transform="translate(5.144 14.127)">
          <g id="组_4065" data-name="组 4065" transform="translate(0 0.011)">
            <path id="路径_1575" data-name="路径 1575" class="cls-4" d="M0,.315v.26A.214.214,0,0,0,.215.789H3.886A.214.214,0,0,0,4.1.574V.315A.214.214,0,0,0,3.886.1H.215A.214.214,0,0,0,0,.315Z" transform="translate(0 -0.1)"/>
            <path id="路径_1576" data-name="路径 1576" class="cls-4" d="M.215,16.911A.214.214,0,0,0,0,17.126v2.643a.214.214,0,0,0,.215.215h.26a.214.214,0,0,0,.215-.215V17.8A.214.214,0,0,1,.9,17.589H3.9a.214.214,0,0,0,.215-.215v-.26A.214.214,0,0,0,3.9,16.9H.215Z" transform="translate(0 -15.002)"/>
          </g>
          <g id="组_4066" data-name="组 4066" transform="translate(11.521)">
            <path id="路径_1577" data-name="路径 1577" class="cls-4" d="M106.1.463V.215A.214.214,0,0,0,105.886,0h-3.671A.214.214,0,0,0,102,.215V2.383h0a.214.214,0,0,0,.215.215h3.671a.214.214,0,0,0,.215-.215v-.26a.214.214,0,0,0-.215-.215h-2.993a.214.214,0,0,1-.215-.215v-.8a.214.214,0,0,1,.215-.215h2.993A.214.214,0,0,0,106.1.463Z" transform="translate(-102 0)"/>
            <path id="路径_1578" data-name="路径 1578" class="cls-4" d="M105.208,30.117h-2.993a.214.214,0,0,0-.215.215v.26a.214.214,0,0,0,.215.215h3.671a.214.214,0,0,0,.215-.215V29.315a.214.214,0,0,0-.215-.215h-.26a.214.214,0,0,0-.215.215v.6A.2.2,0,0,1,105.208,30.117Z" transform="translate(-102 -25.813)"/>
          </g>
          <g id="组_4067" data-name="组 4067" transform="translate(17.282)">
            <path id="路径_1579" data-name="路径 1579" class="cls-4" d="M153,.215v.26a.214.214,0,0,0,.215.215h3.671A.214.214,0,0,0,157.1.474V.215A.214.214,0,0,0,156.886,0h-3.671A.208.208,0,0,0,153,.215Z" transform="translate(-153 0)"/>
            <path id="路径_1580" data-name="路径 1580" class="cls-4" d="M168.215,13.94h.26a.214.214,0,0,0,.215-.215V10.315a.214.214,0,0,0-.215-.215h-.26a.214.214,0,0,0-.215.215v3.423A.205.205,0,0,0,168.215,13.94Z" transform="translate(-166.306 -8.959)"/>
          </g>
          <g id="组_4068" data-name="组 4068" transform="translate(5.25 0.09)">
            <path id="路径_1581" data-name="路径 1581" class="cls-4" d="M51.456,5.691h-.282a.219.219,0,0,1-.192-.113L49.2,2.088a.215.215,0,0,0-.384,0L47.129,5.5a.34.34,0,0,1-.3.192h0a.337.337,0,0,1-.3-.486L48.632.913A.219.219,0,0,1,48.824.8h.339a.219.219,0,0,1,.192.113l2.282,4.473A.2.2,0,0,1,51.456,5.691Z" transform="translate(-46.484 -0.8)"/>
          </g>
        </g>
      </g>
    </g>
  </g>
</svg>
